<svg xmlns="http://www.w3.org/2000/svg" width="127.989" height="126.285" viewBox="0 0 127.989 126.285">
  <g id="handshake" transform="translate(0.001 -0.5)">
    <path id="Path_1407" data-name="Path 1407" d="M127.467,128.431,106.045,100.6a2.51,2.51,0,0,0-3.336-.586l-13.831,8.8H70.84a2.487,2.487,0,0,0-.69.115l-13.986,4.026-14.512-3.969-14.1-8.968a2.508,2.508,0,0,0-3.3.541L.556,129.908a2.509,2.509,0,0,0,.316,3.478l12.419,10.688,11.142,15.014a8.861,8.861,0,0,0,5.575,14.885,8.926,8.926,0,0,0-.1,1.356,8.87,8.87,0,0,0,8.869,8.869l.095,0c0,.061,0,.12,0,.181a8.868,8.868,0,0,0,8.869,8.869,9.05,9.05,0,0,0,1.385-.108,8.869,8.869,0,0,0,15.093,5.4l1.356-1.356.569.459a8.865,8.865,0,0,0,15.031-6.513,8.854,8.854,0,0,0,9-9,8.862,8.862,0,0,0,9-9.007,8.864,8.864,0,0,0,7.577-13.7l8.135-17.038,12.23-10.524A2.509,2.509,0,0,0,127.467,128.431ZM26.747,105.456l10.14,6.448L14.829,138.776,5.99,131.168Zm1.431,56.976,3.06-3.06c.093-.093.19-.181.29-.263a3.842,3.842,0,0,1,2.091-.849l.065,0c.109-.009.219-.015.329-.014a3.827,3.827,0,0,1,2.746,1.206,3.945,3.945,0,0,1-.17,5.46l-2.968,2.968a3.85,3.85,0,0,1-5.444-5.445Zm7.873,15.62a3.848,3.848,0,0,1,0-5.444l5.934-5.934a3.89,3.89,0,0,1,4.377-.756,3.837,3.837,0,0,1,2.121,3.975,4.063,4.063,0,0,1-1.146,2.319l-5.84,5.839a3.85,3.85,0,0,1-5.445,0Zm8.96,9.047a3.849,3.849,0,0,1,0-5.444l5.933-5.934a3.893,3.893,0,0,1,4.654-.61A3.831,3.831,0,0,1,57.436,179a4.067,4.067,0,0,1-1.141,2.259L50.456,187.1a3.85,3.85,0,0,1-5.445,0Zm10.206,7.89a3.854,3.854,0,0,1,0-5.444l3.06-3.06c.093-.093.189-.18.289-.262l.007-.006a3.836,3.836,0,0,1,1.707-.793l.044-.006c.107-.02.217-.035.326-.045.044,0,.088,0,.133-.007.09,0,.179-.011.27-.01a3.825,3.825,0,0,1,2.746,1.206,3.473,3.473,0,0,1,.248.292,3.973,3.973,0,0,1-.434,5.183l-2.952,2.952A3.854,3.854,0,0,1,55.218,194.988Zm46.817-28.008a3.853,3.853,0,0,1-5.444,0,2.282,2.282,0,0,0-.171-.153L80.283,150.519a2.51,2.51,0,0,0-3.568,3.531l16.312,16.482.006.006a3.85,3.85,0,1,1-5.445,5.445L76.676,164.958a2.51,2.51,0,1,0-3.567,3.531l10.745,10.857a2.38,2.38,0,0,0,.176.2,3.85,3.85,0,1,1-5.446,5.444l-5.956-6.018a2.51,2.51,0,0,0-3.568,3.53l5.79,5.849a2.235,2.235,0,0,0,.177.2,3.85,3.85,0,1,1-5.444,5.445,5.549,5.549,0,0,0-.569-.454c-.164-.125-.207-.212-.125-.411s.207-.385.29-.588c.092-.227.166-.46.238-.694a9.049,9.049,0,0,0,.325-3.861,8.779,8.779,0,0,0-7.482-7.555,8.951,8.951,0,0,0-2.149-8.076,8.8,8.8,0,0,0-6.322-2.774h-.265a8.783,8.783,0,0,0-8.695-9.047,9.025,9.025,0,0,0-2.141.228A8.837,8.837,0,0,0,28.024,155.5l-9.7-13.072,23.209-28.275,7.4,2.023-9.66,17.046a8.87,8.87,0,0,0,3.344,12.089q.193.11.391.209l.03.015a8.924,8.924,0,0,0,1.064.446,8.869,8.869,0,0,0,10.6-4.013l6.278-11.078,11.209.795,29.848,29.847A3.856,3.856,0,0,1,102.035,166.98Zm1.04-11.5-28-28a2.224,2.224,0,0,0-.166-.152,2.511,2.511,0,0,0-1.431-.576l-13.724-.974a2.551,2.551,0,0,0-2.361,1.266L50.334,139.5a3.85,3.85,0,1,1-6.7-3.8l9.422-16.628,3.818-1.1.075-.025,14.25-4.115H88.418l21.494,27.324ZM113.2,137.218,93.323,111.936l10.145-6.452,18.574,24.126Zm0,0" transform="translate(0 -74.346)" fill="#e55100"/>
    <path id="Path_1408" data-name="Path 1408" d="M302.654,51.034a2.5,2.5,0,0,0,1.775-.735l17.143-17.143a2.51,2.51,0,1,0-3.549-3.55L300.88,46.749a2.51,2.51,0,0,0,1.774,4.285Zm0,0" transform="translate(-225.115 -21.279)" fill="#fe8f00"/>
    <path id="Path_1409" data-name="Path 1409" d="M141.074,50.3a2.51,2.51,0,0,0,3.549-3.55L127.48,29.606a2.51,2.51,0,1,0-3.549,3.55Zm0,0" transform="translate(-92.4 -21.279)" fill="#fe8f00"/>
    <path id="Path_1410" data-name="Path 1410" d="M248.47,59.906a2.51,2.51,0,0,0,2.51-2.51V43.209a2.51,2.51,0,1,0-5.019,0V57.4A2.51,2.51,0,0,0,248.47,59.906Zm0,0" transform="translate(-184.476 -30.15)" fill="#fe8f00"/>
    <path id="Path_1411" data-name="Path 1411" d="M246.173,3.963a2.508,2.508,0,1,0,3.843-2.951,2.508,2.508,0,0,0-3.843,2.951Zm0,0" transform="translate(-184.495)" fill="#fe8f00"/>
  </g>
</svg>
