<svg xmlns="http://www.w3.org/2000/svg" width="104.075" height="106.703" viewBox="0 0 104.075 106.703">
  <g id="Group_1925" data-name="Group 1925" transform="translate(-177.996 -356.116)">
    <path id="Path_1415" data-name="Path 1415" d="M180.684,462.82A2.684,2.684,0,0,1,178,460.134V369.38a2.679,2.679,0,0,1,1.867-2.557l32.9-10.579a2.681,2.681,0,0,1,3.507,2.557v90.754a2.68,2.68,0,0,1-1.864,2.557l-32.9,10.581A2.748,2.748,0,0,1,180.684,462.82Zm2.686-91.484v85.112L210.9,447.6V362.49Z" transform="translate(0 0)" fill="#e55100"/>
    <path id="Path_1416" data-name="Path 1416" d="M226.84,462.82a2.724,2.724,0,0,1-.822-.127l-32.9-10.581a2.682,2.682,0,0,1-1.867-2.557V358.8a2.682,2.682,0,0,1,3.51-2.557l32.9,10.579a2.68,2.68,0,0,1,1.864,2.557v90.754a2.68,2.68,0,0,1-2.686,2.686ZM196.625,447.6l27.527,8.846V371.336l-27.527-8.846Z" transform="translate(19.646 0)" fill="#e55100"/>
    <path id="Path_1417" data-name="Path 1417" d="M207.194,462.82a2.687,2.687,0,0,1-2.688-2.686V369.38a2.682,2.682,0,0,1,1.867-2.557l32.9-10.579a2.681,2.681,0,0,1,3.507,2.557v90.754a2.68,2.68,0,0,1-1.864,2.557l-32.9,10.581A2.724,2.724,0,0,1,207.194,462.82Zm2.686-91.484v85.112l27.527-8.846V362.49Z" transform="translate(39.291 0)" fill="#e55100"/>
    <path id="Path_1418" data-name="Path 1418" d="M242.467,417.031c-9.261,0-19.609-5.468-29.167-15.573a16.327,16.327,0,0,0-16.829-3.964c-4.867,1.782-7.722,5.935-8.04,11.7a2.689,2.689,0,0,1-5.369-.3c.439-7.923,4.652-13.915,11.562-16.449a21.633,21.633,0,0,1,22.582,5.324c14.287,15.111,25.233,14.419,29.272,13.408a12.038,12.038,0,0,0,9.037-8.519c.926-3.326-.707-7.769-2.435-12.47-2.348-6.389-5.011-13.637-2.611-21.133a2.687,2.687,0,0,1,5.118,1.641c-1.837,5.736.387,11.788,2.537,17.635,2.038,5.54,3.959,10.775,2.567,15.769a17.491,17.491,0,0,1-12.922,12.294A22.019,22.019,0,0,1,242.467,417.031Z" transform="translate(7.503 16.415)" fill="#fe8f00"/>
    <path id="Path_1419" data-name="Path 1419" d="M188.772,398.48a7.755,7.755,0,1,1,7.752-7.757A7.765,7.765,0,0,1,188.772,398.48Zm0-10.135a2.379,2.379,0,1,0,2.378,2.378A2.382,2.382,0,0,0,188.772,388.345Z" transform="translate(4.479 39.799)" fill="#e55100"/>
    <path id="Path_1420" data-name="Path 1420" d="M210.477,381.982a2.691,2.691,0,0,1-1.9-4.592l11.79-11.79a2.688,2.688,0,1,1,3.8,3.8l-11.79,11.79A2.691,2.691,0,0,1,210.477,381.982Z" transform="translate(44.16 12.894)" fill="#e55100"/>
    <path id="Path_1421" data-name="Path 1421" d="M222.27,381.982a2.691,2.691,0,0,1-1.9-.789l-11.79-11.79a2.687,2.687,0,1,1,3.8-3.8l11.793,11.79a2.691,2.691,0,0,1-1.9,4.592Z" transform="translate(44.16 12.894)" fill="#e55100"/>
  </g>
</svg>
