<svg xmlns="http://www.w3.org/2000/svg" width="147.297" height="113.764" viewBox="0 0 147.297 113.764">
  <g id="Group_1893" data-name="Group 1893" transform="translate(-481 -2113)">
    <g id="Group_1892" data-name="Group 1892" transform="translate(481 2113)">
      <path id="Path_1318" data-name="Path 1318" d="M93.517,124.968H69.62a2.581,2.581,0,0,1-2.112-4.062L99.183,75.736a2.678,2.678,0,0,1,4.227,0l11.949,17.038a2.577,2.577,0,0,1,0,2.963L95.631,123.869A2.584,2.584,0,0,1,93.517,124.968Zm-18.934-5.161H92.174l17.92-25.552-8.8-12.542Z" transform="translate(-67.04 -11.204)" fill="#e55100"/>
      <path id="Path_1319" data-name="Path 1319" d="M197.885,147.665a.352.352,0,0,0-.05,0H79.644a2.581,2.581,0,0,1-2.112-4.062l59.1-84.267a2.675,2.675,0,0,1,4.224,0L199.7,143.257a2.579,2.579,0,0,1-1.819,4.408ZM84.607,142.5H192.873L138.74,65.313Z" transform="translate(-53.167 -33.901)" fill="#e55100"/>
      <path id="Path_1322" data-name="Path 1322" d="M110.728,107.5a2.581,2.581,0,0,1-2.579-2.579V89.905a2.581,2.581,0,0,1,5.161,0v15.012A2.582,2.582,0,0,1,110.728,107.5Z" transform="translate(-10.146 6.267)" fill="#e55100"/>
      <path id="Path_1325" data-name="Path 1325" d="M100.237,106.309a2.581,2.581,0,0,1-2.579-2.579V90.763a2.581,2.581,0,0,1,5.161,0V103.73A2.582,2.582,0,0,1,100.237,106.309Z" transform="translate(-24.665 7.454)" fill="#e55100"/>
      <path id="Path_1326" data-name="Path 1326" d="M93.553,77.152A14.542,14.542,0,1,1,108.1,62.609,14.56,14.56,0,0,1,93.553,77.152Zm0-23.923a9.381,9.381,0,1,0,9.381,9.381A9.392,9.392,0,0,0,93.553,53.228Z" transform="translate(-50.472 -48.067)" fill="#fe8f00"/>
      <path id="Path_1327" data-name="Path 1327" d="M92.456,70H79.49a2.581,2.581,0,1,1,0-5.161H92.456a2.581,2.581,0,1,1,0,5.161Z" transform="translate(-53.383 -24.849)" fill="#fe8f00"/>
      <path id="Path_1328" data-name="Path 1328" d="M92.161,70H87.956a2.581,2.581,0,1,1,0-5.161h4.205a2.581,2.581,0,1,1,0,5.161Z" transform="translate(-41.666 -24.849)" fill="#fe8f00"/>
      <path id="Path_1329" data-name="Path 1329" d="M124.4,66.581H111.429a2.581,2.581,0,0,1,0-5.161H124.4a2.581,2.581,0,0,1,0,5.161Z" transform="translate(5.825 -29.587)" fill="#fe8f00"/>
      <path id="Path_1330" data-name="Path 1330" d="M110.845,66.581h-4.208a2.581,2.581,0,0,1,0-5.161h4.208a2.581,2.581,0,0,1,0,5.161Z" transform="translate(-5.807 -29.587)" fill="#fe8f00"/>
      <path id="Path_1331" data-name="Path 1331" d="M129.678,72.857H116.711a2.581,2.581,0,0,1,0-5.161h12.967a2.581,2.581,0,1,1,0,5.161Z" transform="translate(13.135 -20.901)" fill="#fe8f00"/>
      <path id="Path_1320" data-name="Path 1320" d="M125.793,98.092a.32.32,0,0,0-.048,0h-19a2.582,2.582,0,0,1-2.327-3.7l9.5-19.773a2.581,2.581,0,0,1,4.651,0l9.3,19.365a2.58,2.58,0,0,1-2.081,4.108Zm-14.945-5.164h10.795l-5.4-11.231Z" transform="translate(-15.662 -13.341)" fill="#e55100"/>
      <path id="Path_1321" data-name="Path 1321" d="M125.793,100.618H106.745a2.579,2.579,0,0,1-2.327-3.7l6.73-14.006a2.577,2.577,0,0,1,2.324-1.464h5.543a2.585,2.585,0,0,1,2.327,1.464l6.532,13.6a2.578,2.578,0,0,1-2.081,4.105Zm-14.945-5.161h10.795l-4.251-8.842h-2.3Z" transform="translate(-15.662 -1.864)" fill="#e55100"/>
      <path id="Path_1323" data-name="Path 1323" d="M113.259,98.185a.177.177,0,0,0-.05,0H96.8a2.579,2.579,0,0,1-2.324-3.7l8.206-17.081a2.581,2.581,0,0,1,4.651,0l8.013,16.671a2.583,2.583,0,0,1-2.081,4.108ZM100.9,93.024h8.206L105,84.484Z" transform="translate(-29.428 -9.484)" fill="#e55100"/>
      <path id="Path_1324" data-name="Path 1324" d="M113.259,100.369a.176.176,0,0,0-.05,0H96.8a2.582,2.582,0,0,1-2.324-3.7l5.812-12.1a2.579,2.579,0,0,1,2.324-1.464H107.4a2.579,2.579,0,0,1,2.324,1.464l5.619,11.689a2.583,2.583,0,0,1-2.081,4.108ZM100.9,95.208h8.2l-3.33-6.937h-1.542Z" transform="translate(-29.428 0.431)" fill="#e55100"/>
    </g>
  </g>
</svg>
