<svg xmlns="http://www.w3.org/2000/svg" width="100.338" height="112.159" viewBox="0 0 100.338 112.159">
  <g id="Group_1905" data-name="Group 1905" transform="translate(-178.01 -149.105)">
    <path id="Path_1345" data-name="Path 1345" d="M195.2,167.884a2.532,2.532,0,0,1-2.532-2.535V151.64A2.534,2.534,0,0,1,195.2,149.1h26.652a2.535,2.535,0,0,1,2.535,2.535v13.71a2.535,2.535,0,0,1-3.241,2.434,45.531,45.531,0,0,0-25.236,0A2.441,2.441,0,0,1,195.2,167.884Zm13.326-6.96a50.421,50.421,0,0,1,10.794,1.168v-7.92H197.737v7.92A50.383,50.383,0,0,1,208.528,160.924Z" transform="translate(19.649 0)" fill="#e55100"/>
    <path id="Path_1343" data-name="Path 1343" d="M228.178,254.495a50.17,50.17,0,1,1,50.17-50.17A50.226,50.226,0,0,1,228.178,254.495Zm0-95.273a45.1,45.1,0,1,0,45.1,45.1A45.153,45.153,0,0,0,228.178,159.222Z" transform="translate(0 6.769)" fill="#fe8f00"/>
    <path id="Path_1344" data-name="Path 1344" d="M223.3,241.095a41.65,41.65,0,1,1,41.651-41.649A41.7,41.7,0,0,1,223.3,241.095Zm0-78.233a36.583,36.583,0,1,0,36.584,36.584A36.627,36.627,0,0,0,223.3,162.862Z" transform="translate(4.879 11.648)" fill="#e55100"/>
    <path id="Path_1346" data-name="Path 1346" d="M217.15,179.576h-5.7a2.533,2.533,0,1,1,0-5.067h5.7a2.533,2.533,0,0,1,0,5.067Z" transform="translate(41.422 34.05)" fill="#fe8f00"/>
    <path id="Path_1347" data-name="Path 1347" d="M200.9,195.826a2.534,2.534,0,0,1-2.532-2.532v-5.7a2.533,2.533,0,1,1,5.067,0v5.7A2.535,2.535,0,0,1,200.9,195.826Z" transform="translate(27.281 48.192)" fill="#fe8f00"/>
    <path id="Path_1348" data-name="Path 1348" d="M193.609,179.576h-5.7a2.533,2.533,0,0,1,0-5.067h5.7a2.533,2.533,0,1,1,0,5.067Z" transform="translate(9.876 34.05)" fill="#fe8f00"/>
    <path id="Path_1349" data-name="Path 1349" d="M207.256,195.927a2.53,2.53,0,0,1-1.79-.742l-8.088-8.088a2.534,2.534,0,0,1,.363-3.883l25.533-17.445a2.534,2.534,0,0,1,3.522,3.52l-17.447,25.533a2.542,2.542,0,0,1-1.856,1.1C207.413,195.922,207.333,195.927,207.256,195.927Zm-4.135-10.253,3.768,3.768,8.126-11.894Z" transform="translate(24.966 21.743)" fill="#e55100"/>
    <path id="Path_1350" data-name="Path 1350" d="M191.717,203.381a2.533,2.533,0,0,1-2.092-3.962l17.445-25.533a2.532,2.532,0,0,1,3.883-.36l8.086,8.086a2.532,2.532,0,0,1-.36,3.883l-25.533,17.447A2.537,2.537,0,0,1,191.717,203.381Zm17.812-24.113L201.4,191.162l11.891-8.128Z" transform="translate(14.974 31.734)" fill="#e55100"/>
    <g id="Group_1904" data-name="Group 1904" transform="translate(222.151 178.167)">
      <path id="Path_1351" data-name="Path 1351" d="M202.389,172.291a2.534,2.534,0,0,1-2.532-2.532v-5.7a2.533,2.533,0,1,1,5.067,0v5.7A2.534,2.534,0,0,1,202.389,172.291Z" transform="translate(-192.869 -161.523)" fill="#fe8f00"/>
      <path id="Path_1352" data-name="Path 1352" d="M206.391,172.291a2.523,2.523,0,0,1-1.6-.571l-6.988-5.7a2.534,2.534,0,0,1,3.2-3.927l6.988,5.7a2.535,2.535,0,0,1-1.6,4.5Z" transform="translate(-196.871 -161.523)" fill="#fe8f00"/>
      <path id="Path_1353" data-name="Path 1353" d="M199.4,172.291a2.532,2.532,0,0,1-2.532-2.532v-5.7a2.533,2.533,0,1,1,5.067,0v5.7A2.534,2.534,0,0,1,199.4,172.291Z" transform="translate(-196.871 -161.523)" fill="#fe8f00"/>
    </g>
  </g>
</svg>
