<svg xmlns="http://www.w3.org/2000/svg" width="89.245" height="115.592" viewBox="0 0 89.245 115.592">
  <g id="Group_1922" data-name="Group 1922" transform="translate(-483.659 -250.144)">
    <path id="Path_1401" data-name="Path 1401" d="M516.02,306.889H486.285a2.624,2.624,0,0,1-2.626-2.623V294.143a2.624,2.624,0,0,1,2.626-2.623H516.02a2.624,2.624,0,0,1,2.626,2.623v10.123A2.624,2.624,0,0,1,516.02,306.889Zm-27.115-5.244H513.4v-4.881H488.906Z" transform="translate(0 58.847)" fill="#fe8f00"/>
    <path id="Path_1404" data-name="Path 1404" d="M538.42,306.889H508.685a2.624,2.624,0,0,1-2.626-2.623V294.143a2.624,2.624,0,0,1,2.626-2.623H538.42a2.624,2.624,0,0,1,2.626,2.623v10.123A2.624,2.624,0,0,1,538.42,306.889Zm-27.115-5.244H535.8v-4.881H511.306Z" transform="translate(31.858 58.847)" fill="#fe8f00"/>
    <path id="Path_1391" data-name="Path 1391" d="M516.07,316.542a.345.345,0,0,1-.051,0H486.284a2.623,2.623,0,0,1-2.6-3l4.934-33.681a2.62,2.62,0,0,1,2.592-2.245h19.879a2.622,2.622,0,0,1,2.592,2.245l4.861,33.187a2.621,2.621,0,0,1-2.476,3.5ZM489.314,311.3h23.677l-4.169-28.437h-15.34Z" transform="translate(0.001 39.069)" fill="#e55100"/>
    <path id="Path_1392" data-name="Path 1392" d="M489.448,302.947a1.854,1.854,0,0,1-.257-.019,1.747,1.747,0,0,1-1.478-1.981l2.679-18.3a1.748,1.748,0,0,1,3.459.506l-2.679,18.3A1.745,1.745,0,0,1,489.448,302.947Z" transform="translate(5.74 44.101)" fill="#fe8f00"/>
    <path id="Path_1393" data-name="Path 1393" d="M528.284,304.378h-42a2.624,2.624,0,0,1-2.626-2.623V265.108a2.624,2.624,0,0,1,2.626-2.623h42a2.623,2.623,0,0,1,2.621,2.623v9.582a2.621,2.621,0,0,1-2.621,2.621h-6.119v12.237h6.119a2.623,2.623,0,0,1,2.621,2.623v9.582A2.623,2.623,0,0,1,528.284,304.378Zm-39.378-5.247h36.753v-4.338H519.54a2.623,2.623,0,0,1-2.621-2.621V274.691a2.623,2.623,0,0,1,2.621-2.623h6.119v-4.336H488.906Z" transform="translate(0 17.552)" fill="#fe8f00"/>
    <path id="Path_1394" data-name="Path 1394" d="M488.945,290.78a1.75,1.75,0,0,1-1.749-1.749V285.16a1.749,1.749,0,0,1,3.5,0v3.871A1.748,1.748,0,0,1,488.945,290.78Zm0-11.5a1.749,1.749,0,0,1-1.749-1.746v-9.759a1.749,1.749,0,0,1,3.5,0v9.759A1.748,1.748,0,0,1,488.945,279.277Z" transform="translate(5.031 22.582)" fill="#fe8f00"/>
    <path id="Path_1395" data-name="Path 1395" d="M507.164,274.189H493.631A2.624,2.624,0,0,1,491,271.565v-11a2.624,2.624,0,0,1,2.626-2.623h13.533a2.626,2.626,0,0,1,2.628,2.623v11A2.626,2.626,0,0,1,507.164,274.189Zm-10.912-5.247h8.291v-5.753h-8.291Z" transform="translate(10.448 11.095)" fill="#fe8f00"/>
    <path id="Path_1396" data-name="Path 1396" d="M513.044,274.284H492.1a2.622,2.622,0,0,1-2.626-2.621v-18.9a2.624,2.624,0,0,1,2.626-2.623h20.943a2.624,2.624,0,0,1,2.626,2.623v18.9A2.622,2.622,0,0,1,513.044,274.284Zm-18.322-5.244h15.7V255.388h-15.7Z" transform="translate(8.273 0)" fill="#e55100"/>
    <path id="Path_1397" data-name="Path 1397" d="M494.761,260.689a1.75,1.75,0,0,1-1.749-1.749v-3.512a1.749,1.749,0,0,1,3.5,0v3.512A1.747,1.747,0,0,1,494.761,260.689Z" transform="translate(13.302 5.03)" fill="#fe8f00"/>
    <path id="Path_1398" data-name="Path 1398" d="M521.567,274.189H508.029a2.626,2.626,0,0,1-2.628-2.623v-11a2.626,2.626,0,0,1,2.628-2.623h13.538a2.623,2.623,0,0,1,2.621,2.623v11A2.623,2.623,0,0,1,521.567,274.189Zm-10.917-5.247h8.291v-5.753H510.65Z" transform="translate(30.922 11.095)" fill="#fe8f00"/>
    <path id="Path_1399" data-name="Path 1399" d="M527.445,274.284H506.5a2.622,2.622,0,0,1-2.626-2.621v-18.9a2.624,2.624,0,0,1,2.626-2.623h20.948a2.623,2.623,0,0,1,2.621,2.623v18.9A2.621,2.621,0,0,1,527.445,274.284Zm-18.327-5.244h15.7V255.388h-15.7Z" transform="translate(28.748 0)" fill="#e55100"/>
    <path id="Path_1402" data-name="Path 1402" d="M538.421,316.542H508.685a2.623,2.623,0,0,1-2.6-3l4.934-33.681a2.622,2.622,0,0,1,2.592-2.245h19.879a2.62,2.62,0,0,1,2.592,2.245l4.934,33.681a2.623,2.623,0,0,1-2.6,3ZM511.716,311.3h23.675l-4.169-28.437h-15.34Z" transform="translate(31.858 39.069)" fill="#e55100"/>
    <path id="Path_1403" data-name="Path 1403" d="M545.618,304.378H503.624A2.624,2.624,0,0,1,501,301.754v-9.582a2.624,2.624,0,0,1,2.626-2.623h6.114V277.312h-6.114A2.622,2.622,0,0,1,501,274.691v-9.582a2.624,2.624,0,0,1,2.626-2.623h41.995a2.624,2.624,0,0,1,2.626,2.623v36.646A2.624,2.624,0,0,1,545.618,304.378Zm-39.374-5.247H543v-31.4H506.245v4.336h6.119a2.623,2.623,0,0,1,2.621,2.623v17.481a2.623,2.623,0,0,1-2.621,2.621h-6.119Z" transform="translate(24.66 17.552)" fill="#fe8f00"/>
    <path id="Path_1400" data-name="Path 1400" d="M517.495,289.166H500.011a2.623,2.623,0,0,1-2.621-2.621V269.064a2.623,2.623,0,0,1,2.621-2.623h17.484a2.623,2.623,0,0,1,2.621,2.623v17.481A2.623,2.623,0,0,1,517.495,289.166Zm-14.858-5.244h12.232V271.685H502.637Z" transform="translate(19.529 23.178)" fill="#e55100"/>
  </g>
</svg>
