<svg xmlns="http://www.w3.org/2000/svg" width="157.936" height="120.553" viewBox="0 0 157.936 120.553">
  <g id="Group_1919" data-name="Group 1919" transform="translate(-370.073 -48.512)">
    <path id="Path_1360" data-name="Path 1360" d="M453.233,128.42H396.291a2.75,2.75,0,0,1-2.165-1.051,38.619,38.619,0,0,1-8.389-24.171,39.025,39.025,0,0,1,78.05,0A38.619,38.619,0,0,1,455.4,127.37,2.758,2.758,0,0,1,453.233,128.42ZM397.661,122.9h54.2a33.171,33.171,0,0,0,6.4-19.7,33.5,33.5,0,1,0-67,0A33.136,33.136,0,0,0,397.661,122.9Z" transform="translate(24.279 24.279)" fill="#e55100"/>
    <g id="Group_1909" data-name="Group 1909" transform="translate(446.277 48.512)">
      <path id="Path_1361" data-name="Path 1361" d="M402.721,70.467a2.762,2.762,0,0,1-2.764-2.759V51.271a2.762,2.762,0,0,1,5.523,0V67.708A2.761,2.761,0,0,1,402.721,70.467Z" transform="translate(-399.957 -48.512)" fill="#fe8f00"/>
      <path id="Path_1362" data-name="Path 1362" d="M402.721,69.4a2.763,2.763,0,0,1-2.764-2.762V61.306a2.762,2.762,0,1,1,5.523,0v5.332A2.761,2.761,0,0,1,402.721,69.4Z" transform="translate(-399.957 -32.963)" fill="#fe8f00"/>
    </g>
    <g id="Group_1910" data-name="Group 1910" transform="translate(468.924 58.719)">
      <path id="Path_1363" data-name="Path 1363" d="M414.437,72.272a2.764,2.764,0,0,1-2.389-4.141l8.221-14.237a2.762,2.762,0,0,1,4.784,2.762l-8.224,14.237A2.756,2.756,0,0,1,414.437,72.272Z" transform="translate(-404.439 -52.515)" fill="#fe8f00"/>
      <path id="Path_1364" data-name="Path 1364" d="M411.6,71.343a2.76,2.76,0,0,1-2.389-4.139l2.667-4.621a2.761,2.761,0,0,1,4.784,2.759l-2.667,4.621A2.764,2.764,0,0,1,411.6,71.343Z" transform="translate(-408.838 -39.047)" fill="#fe8f00"/>
    </g>
    <g id="Group_1911" data-name="Group 1911" transform="translate(485.499 86.615)">
      <path id="Path_1365" data-name="Path 1365" d="M423.023,77.193a2.76,2.76,0,0,1-1.385-5.151l14.237-8.216a2.759,2.759,0,0,1,2.759,4.779L424.4,76.823A2.748,2.748,0,0,1,423.023,77.193Z" transform="translate(-407.714 -63.454)" fill="#fe8f00"/>
      <path id="Path_1366" data-name="Path 1366" d="M418.1,76.658a2.758,2.758,0,0,1-1.38-5.151l4.618-2.667a2.761,2.761,0,0,1,2.759,4.784l-4.618,2.665A2.766,2.766,0,0,1,418.1,76.658Z" transform="translate(-415.338 -55.68)" fill="#fe8f00"/>
    </g>
    <g id="Group_1912" data-name="Group 1912" transform="translate(491.572 124.716)">
      <path id="Path_1367" data-name="Path 1367" d="M442.6,83.919h-16.44a2.762,2.762,0,0,1,0-5.523H442.6a2.762,2.762,0,0,1,0,5.523Z" transform="translate(-408.919 -78.396)" fill="#fe8f00"/>
      <path id="Path_1368" data-name="Path 1368" d="M425.814,83.919h-5.335a2.762,2.762,0,0,1,0-5.523h5.335a2.762,2.762,0,0,1,0,5.523Z" transform="translate(-417.72 -78.396)" fill="#fe8f00"/>
    </g>
    <g id="Group_1913" data-name="Group 1913" transform="translate(485.499 147.361)">
      <path id="Path_1369" data-name="Path 1369" d="M437.25,103.858a2.718,2.718,0,0,1-1.374-.372l-14.237-8.216a2.76,2.76,0,1,1,2.759-4.781l14.237,8.219a2.762,2.762,0,0,1-1.385,5.151Z" transform="translate(-407.714 -82.875)" fill="#fe8f00"/>
      <path id="Path_1370" data-name="Path 1370" d="M422.717,95.468a2.748,2.748,0,0,1-1.375-.37l-4.618-2.67a2.76,2.76,0,1,1,2.759-4.781l4.618,2.67a2.76,2.76,0,0,1-1.385,5.151Z" transform="translate(-415.338 -87.277)" fill="#fe8f00"/>
    </g>
    <g id="Group_1914" data-name="Group 1914" transform="translate(408.176 58.72)">
      <path id="Path_1371" data-name="Path 1371" d="M395.995,72.27a2.757,2.757,0,0,1-2.392-1.38l-8.219-14.234a2.761,2.761,0,0,1,4.784-2.759l8.216,14.234a2.759,2.759,0,0,1-2.389,4.139Z" transform="translate(-385.015 -52.515)" fill="#fe8f00"/>
      <path id="Path_1372" data-name="Path 1372" d="M395.464,71.344a2.764,2.764,0,0,1-2.394-1.38L390.4,65.346a2.762,2.762,0,1,1,4.784-2.762l2.667,4.618a2.764,2.764,0,0,1-2.389,4.141Z" transform="translate(-377.24 -39.048)" fill="#fe8f00"/>
    </g>
    <g id="Group_1915" data-name="Group 1915" transform="translate(380.285 86.615)">
      <path id="Path_1373" data-name="Path 1373" d="M391.067,77.193a2.767,2.767,0,0,1-1.38-.37L375.456,68.6a2.759,2.759,0,0,1,2.759-4.779l14.231,8.216a2.758,2.758,0,0,1-1.38,5.151Z" transform="translate(-374.078 -63.454)" fill="#fe8f00"/>
      <path id="Path_1374" data-name="Path 1374" d="M390.139,76.659a2.748,2.748,0,0,1-1.374-.37l-4.618-2.667a2.76,2.76,0,1,1,2.759-4.781l4.618,2.667a2.76,2.76,0,0,1-1.385,5.151Z" transform="translate(-360.612 -55.681)" fill="#fe8f00"/>
    </g>
    <g id="Group_1916" data-name="Group 1916" transform="translate(370.073 124.716)">
      <path id="Path_1375" data-name="Path 1375" d="M389.272,83.919h-16.44a2.762,2.762,0,0,1,0-5.523h16.44a2.762,2.762,0,0,1,0,5.523Z" transform="translate(-370.073 -78.396)" fill="#fe8f00"/>
      <path id="Path_1376" data-name="Path 1376" d="M388.2,83.919h-5.33a2.762,2.762,0,1,1,0-5.523h5.33a2.762,2.762,0,1,1,0,5.523Z" transform="translate(-354.525 -78.396)" fill="#fe8f00"/>
    </g>
    <g id="Group_1917" data-name="Group 1917" transform="translate(380.285 147.361)">
      <path id="Path_1377" data-name="Path 1377" d="M376.84,103.858a2.761,2.761,0,0,1-1.385-5.151l14.231-8.219a2.759,2.759,0,1,1,2.759,4.779l-14.231,8.219A2.718,2.718,0,0,1,376.84,103.858Z" transform="translate(-374.078 -82.875)" fill="#fe8f00"/>
      <path id="Path_1378" data-name="Path 1378" d="M385.531,95.466a2.76,2.76,0,0,1-1.385-5.151l4.618-2.667a2.76,2.76,0,1,1,2.759,4.781L386.906,95.1A2.747,2.747,0,0,1,385.531,95.466Z" transform="translate(-360.612 -87.277)" fill="#fe8f00"/>
    </g>
    <g id="Group_1918" data-name="Group 1918" transform="translate(421.677 155.515)">
      <path id="Path_1379" data-name="Path 1379" d="M417.5,96H393.074a2.762,2.762,0,1,1,0-5.523H417.5a2.762,2.762,0,0,1,0,5.523Z" transform="translate(-390.31 -90.474)" fill="#e55100"/>
      <path id="Path_1380" data-name="Path 1380" d="M415.905,96h-7.928a2.762,2.762,0,0,1,0-5.523h7.928a2.762,2.762,0,0,1,0,5.523Z" transform="translate(-367.203 -90.474)" fill="#e55100"/>
    </g>
    <path id="Path_1381" data-name="Path 1381" d="M419.283,99.144H398.544a2.76,2.76,0,1,1,0-5.521h20.739a2.76,2.76,0,0,1,0,5.521Z" transform="translate(39.846 69.922)" fill="#e55100"/>
  </g>
</svg>
