<svg xmlns="http://www.w3.org/2000/svg" width="209.86" height="128.725" viewBox="0 0 209.86 128.725">
  <g id="Group_1897" data-name="Group 1897" transform="translate(-810.912 -2071.05)">
    <g id="Group_1896" data-name="Group 1896" transform="translate(857.219 2071.05)">
      <path id="Path_1334" data-name="Path 1334" d="M522.3,116.422H510.793a2.873,2.873,0,0,1-2.871-2.871V86.178a2.873,2.873,0,0,1,2.871-2.871H522.3a2.875,2.875,0,0,1,2.871,2.871v27.373A2.875,2.875,0,0,1,522.3,116.422Zm-8.629-5.745h5.753V89.052H513.67Z" transform="translate(-437.82 12.303)" fill="#e55100"/>
      <path id="Path_1337" data-name="Path 1337" d="M498.318,111.176h-8.027a2.874,2.874,0,0,1-2.876-2.871V89.351a2.872,2.872,0,0,1,2.876-2.871h8.027a2.873,2.873,0,0,1,2.876,2.871V108.3A2.874,2.874,0,0,1,498.318,111.176Zm-5.156-5.745h2.285V92.225h-2.285Z" transform="translate(-471.728 17.549)" fill="#e55100"/>
      <path id="Path_1332" data-name="Path 1332" d="M559.028,148.629H502.273a2.874,2.874,0,0,1-2.632-4.017l17.791-40.943h-8.812a2.874,2.874,0,0,1-2.635-4.017L528,49a2.871,2.871,0,0,1,5.267,0l22.008,50.649a2.874,2.874,0,0,1-2.632,4.017h-8.818l17.587,40.473a2.873,2.873,0,0,1-2.38,4.487Zm-52.371-5.745h47.937l-17.786-40.943a2.874,2.874,0,0,1,2.635-4.017h8.812L530.628,57.356,513,97.924h8.818a2.871,2.871,0,0,1,2.632,4.017Z" transform="translate(-451.903 -47.275)" fill="#fe8f00"/>
      <path id="Path_1333" data-name="Path 1333" d="M506.087,127.44a1.937,1.937,0,0,1-.767-.159,1.914,1.914,0,0,1-.992-2.521l2.762-6.36a1.916,1.916,0,0,1,3.516,1.526l-2.762,6.36A1.92,1.92,0,0,1,506.087,127.44Zm6.358-14.639a1.915,1.915,0,0,1-1.757-2.677L521,86.4a1.915,1.915,0,1,1,3.513,1.526L514.2,111.649A1.922,1.922,0,0,1,512.445,112.8Zm2.234-35.509a1.868,1.868,0,0,1-.759-.162,1.918,1.918,0,0,1-1-2.518L521,56.033a1.915,1.915,0,0,1,3.513,1.526l-8.075,18.58A1.914,1.914,0,0,1,514.679,77.292Z" transform="translate(-444.028 -34.702)" fill="#fe8f00"/>
      <path id="Path_1335" data-name="Path 1335" d="M523.718,133.48H484.4a2.875,2.875,0,0,1-2.635-4.02l11.781-27.113h-4.755a2.874,2.874,0,0,1-2.635-4.017L501.4,63.256a2.873,2.873,0,0,1,2.638-1.727h0a2.872,2.872,0,0,1,2.632,1.73L521.906,98.33a2.871,2.871,0,0,1-2.632,4.017h-4.755l11.572,26.646a2.814,2.814,0,0,1,.5,1.613A2.872,2.872,0,0,1,523.718,133.48Zm-34.935-5.745h30.5L507.5,100.62a2.869,2.869,0,0,1,2.632-4.017h4.755l-10.852-24.99L493.174,96.6h4.755a2.869,2.869,0,0,1,2.632,4.017Z" transform="translate(-481.456 -23.707)" fill="#fe8f00"/>
      <path id="Path_1336" data-name="Path 1336" d="M488.209,112.291a1.9,1.9,0,0,1-.762-.162,1.919,1.919,0,0,1-1-2.518l1.351-3.1a1.916,1.916,0,0,1,3.516,1.523l-1.351,3.1A1.917,1.917,0,0,1,488.209,112.291Zm3.726-8.576a1.919,1.919,0,0,1-1.757-2.677l4.227-9.725a1.916,1.916,0,0,1,3.516,1.526l-4.23,9.722A1.914,1.914,0,0,1,491.934,103.715Zm.666-22.56a1.9,1.9,0,0,1-.762-.159,1.923,1.923,0,0,1-1-2.521l3.561-8.189a1.917,1.917,0,0,1,3.516,1.528L494.357,80A1.912,1.912,0,0,1,492.6,81.155Z" transform="translate(-473.583 -11.133)" fill="#fe8f00"/>
      <g id="Group_1895" data-name="Group 1895" transform="translate(19.134 16.69)">
        <path id="Path_1338" data-name="Path 1338" d="M508.689,59.31h-17.1a2.872,2.872,0,0,1,0-5.745h17.1a2.872,2.872,0,0,1,0,5.745Z" transform="translate(-488.714 -53.565)" fill="#fe8f00"/>
        <path id="Path_1339" data-name="Path 1339" d="M507.169,59.31H501.62a2.872,2.872,0,1,1,0-5.745h5.548a2.872,2.872,0,1,1,0,5.745Z" transform="translate(-472.13 -53.565)" fill="#fe8f00"/>
      </g>
      <path id="Path_1340" data-name="Path 1340" d="M531.187,76.881H518.36a2.872,2.872,0,1,1,0-5.745h12.827a2.872,2.872,0,0,1,0,5.745Z" transform="translate(-414.317 -7.822)" fill="#e55100"/>
      <path id="Path_1341" data-name="Path 1341" d="M508.415,65.564H495.59a2.872,2.872,0,1,1,0-5.745h12.824a2.872,2.872,0,0,1,0,5.745Z" transform="translate(-462.966 -26.534)" fill="#fe8f00"/>
      <path id="Path_1342" data-name="Path 1342" d="M497.2,73.241H484.374a2.872,2.872,0,0,1,0-5.745H497.2a2.872,2.872,0,1,1,0,5.745Z" transform="translate(-496.503 -13.84)" fill="#fe8f00"/>
    </g>
    <g id="Group_1898" data-name="Group 1898" transform="translate(982.857 2180.129)">
      <path id="Path_1338-2" data-name="Path 1338" d="M508.689,59.31h-17.1a2.872,2.872,0,0,1,0-5.745h17.1a2.872,2.872,0,0,1,0,5.745Z" transform="translate(-488.714 -53.565)" fill="#e55100"/>
      <path id="Path_1339-2" data-name="Path 1339" d="M507.169,59.31H501.62a2.872,2.872,0,1,1,0-5.745h5.548a2.872,2.872,0,1,1,0,5.745Z" transform="translate(-472.13 -53.565)" fill="#fe8f00"/>
    </g>
    <g id="Group_1899" data-name="Group 1899" transform="translate(810.912 2083.891)">
      <path id="Path_1338-3" data-name="Path 1338" d="M508.689,59.31h-17.1a2.872,2.872,0,0,1,0-5.745h17.1a2.872,2.872,0,0,1,0,5.745Z" transform="translate(-488.714 -53.565)" fill="#fe8f00"/>
      <path id="Path_1339-3" data-name="Path 1339" d="M507.169,59.31H501.62a2.872,2.872,0,1,1,0-5.745h5.548a2.872,2.872,0,1,1,0,5.745Z" transform="translate(-472.13 -53.565)" fill="#fe8f00"/>
    </g>
    <g id="Group_1900" data-name="Group 1900" transform="translate(829.827 2185.261)">
      <path id="Path_1339-4" data-name="Path 1339" d="M507.169,59.31H501.62a2.872,2.872,0,1,1,0-5.745h5.548a2.872,2.872,0,1,1,0,5.745Z" transform="translate(-498.744 -53.565)" fill="#fe8f00"/>
    </g>
    <g id="Group_1901" data-name="Group 1901" transform="translate(982.524 2089.023)">
      <path id="Path_1339-5" data-name="Path 1339" d="M507.169,59.31H501.62a2.872,2.872,0,1,1,0-5.745h5.548a2.872,2.872,0,1,1,0,5.745Z" transform="translate(-498.744 -53.565)" fill="#fe8f00"/>
    </g>
    <g id="Group_1903" data-name="Group 1903" transform="translate(825.977 2137.784)">
      <path id="Path_1339-6" data-name="Path 1339" d="M507.169,59.31H501.62a2.872,2.872,0,1,1,0-5.745h5.548a2.872,2.872,0,1,1,0,5.745Z" transform="translate(-498.744 -53.565)" fill="#fe8f00"/>
    </g>
    <g id="Group_1902" data-name="Group 1902" transform="translate(996.639 2089.023)">
      <path id="Path_1339-7" data-name="Path 1339" d="M507.169,59.31H501.62a2.872,2.872,0,1,1,0-5.745h5.548a2.872,2.872,0,1,1,0,5.745Z" transform="translate(-498.744 -53.565)" fill="#fe8f00"/>
    </g>
  </g>
</svg>
