<svg xmlns="http://www.w3.org/2000/svg" width="86.229" height="38.055" viewBox="0 0 86.229 38.055">
  <g id="Group_1939" data-name="Group 1939" transform="translate(-1681.771 -14944.568)">
    <path id="Path_1290" data-name="Path 1290" d="M30.706,14.922c-1-3.733-4.26-5.194-7.868-3.259-3.608-1.935-6.872-.474-7.868,3.259-3.731,1-5.193,4.26-3.258,7.867-1.935,3.608-.473,6.873,3.258,7.868a5.537,5.537,0,0,0,2.5,3.528V46.844H28.2V34.186a5.533,5.533,0,0,0,2.5-3.528c3.731-1,5.193-4.26,3.259-7.868C35.9,19.182,34.438,15.918,30.706,14.922Z" transform="translate(1671.933 14934.779)" fill="none" stroke="#e55100" stroke-miterlimit="10" stroke-width="2"/>
    <g id="Group_1937" data-name="Group 1937" transform="translate(0 860)">
      <path id="Path_1291" data-name="Path 1291" d="M66.978,21.1a2.4,2.4,0,0,0,2.573,1.994c.531,0,1.187-.289,1.187-.913,0-1.492-4.794-.64-4.794-3.365a2.524,2.524,0,0,1,2.785-2.282,4.046,4.046,0,0,1,2.236.747l.306-.518h.837V19.3h-.99a2.17,2.17,0,0,0-2.253-1.673c-.5,0-1.157.213-1.157.822,0,1.187,4.795.623,4.795,3.408,0,1.6-1.354,2.251-2.785,2.251a3.718,3.718,0,0,1-2.54-.774l-.305.547h-1V21.1Z" transform="translate(1645.333 14072.011)"/>
      <path id="Path_1292" data-name="Path 1292" d="M82.295,18.012h.029a2.613,2.613,0,0,1,2.389-1.477c2.116,0,3.014,1.918,3.014,3.79s-.9,3.787-3.014,3.787a2.764,2.764,0,0,1-2.36-1.307h-.044v2.631c0,.458.137.67.608.67h.959v1H79.052v-1h.838c.471,0,.609-.213.609-.67v-7c0-.458-.138-.67-.609-.67H79.1v-1h3.2Zm.043,2.313c0,1.749.762,2.6,1.782,2.6.866,0,1.565-.9,1.565-2.6,0-1.949-.73-2.6-1.565-2.6C83.1,17.723,82.338,18.574,82.338,20.325Z" transform="translate(1638.959 14072.011)"/>
      <path id="Path_1293" data-name="Path 1293" d="M97.087,21.15v-1h.7c.426,0,.609-.168.609-.609v-3.9c0-.441-.183-.608-.609-.608h-.7v-1h3.105v5.509c0,.441.182.609.607.609h.747v1ZM99.1,10.877a1.1,1.1,0,1,1-1.1,1.1A1.1,1.1,0,0,1,99.1,10.877Z" transform="translate(1630.238 14074.746)"/>
      <path id="Path_1294" data-name="Path 1294" d="M113.079,20.964c-.139,2.038-1.2,3.148-3.273,3.148-2.343,0-3.578-1.353-3.578-3.8a3.722,3.722,0,0,1,3.759-3.775c1.766,0,3.135.958,3.135,2.238a1.172,1.172,0,0,1-1.1,1.262c-.531,0-1.186-.274-1.186-.913a.873.873,0,0,1,.9-.99,1.7,1.7,0,0,0-1.444-.593c-1.583,0-2.025,1.491-2.025,2.647s.38,2.649,1.963,2.649c.913,0,1.552-.776,1.658-1.872Z" transform="translate(1625.818 14072.011)"/>
      <path id="Path_1295" data-name="Path 1295" d="M120.6,16.978H125v1h-.656c-.257,0-.44.106-.44.335a1.65,1.65,0,0,0,.138.426l1.37,3.224h.028l1.265-3.088a1.436,1.436,0,0,0,.136-.532c0-.2-.213-.365-.487-.365H125.7v-1h3.666v1a1.154,1.154,0,0,0-1.245.685l-2.467,5.858c-.837,1.994-1.629,2.8-3.045,2.8a1.862,1.862,0,0,1-2.022-1.841,1.189,1.189,0,0,1,1.169-1.338,1,1,0,0,1,1.051.958.82.82,0,0,1-.746.868c-.12,0-.272-.015-.395-.015a.792.792,0,0,0,.747.365,1.652,1.652,0,0,0,1.642-1.111l.5-1.11-2.572-5.524c-.181-.4-.608-.593-1.386-.593Z" transform="translate(1618.874 14071.796)"/>
      <path id="Path_1296" data-name="Path 1296" d="M67.776,39.784h.03a2.558,2.558,0,0,1,2.024-1.172c2.222,0,3.1,1.843,3.1,3.609,0,2.527-1.065,3.972-3.164,3.972a2.659,2.659,0,0,1-2.268-1.05l-.563.822h-.958V37.487c0-.441-.184-.606-.609-.606h-.593V35.875h3Zm1.552.018c-1.018,0-1.566.852-1.566,2.6,0,1.858.334,2.6,1.566,2.6,1.02,0,1.568-.851,1.568-2.6C70.9,40.546,70.561,39.8,69.328,39.8Z" transform="translate(1645.861 14062.659)"/>
      <path id="Path_1297" data-name="Path 1297" d="M84.843,42.56h.03c.608-.912,1.081-1.386,1.9-1.386a1.675,1.675,0,0,1,1.84,1.677,1.168,1.168,0,0,1-1.154,1.278.981.981,0,0,1-1.081-.975.929.929,0,0,1,1-.913.818.818,0,0,0-.638-.212,2.128,2.128,0,0,0-1.886,2.342v2.543c0,.44.183.609.609.609h.959v1H81.617v-1h.838c.426,0,.608-.169.608-.609v-3.9c0-.441-.182-.609-.608-.609h-.838v-1h3.226Z" transform="translate(1637.718 14060.097)"/>
      <path id="Path_1298" data-name="Path 1298" d="M99.974,41.174a3.792,3.792,0,1,1-3.912,3.791A3.6,3.6,0,0,1,99.974,41.174Zm0,6.576c1.231,0,1.871-.959,1.871-2.785s-.64-2.785-1.871-2.785-1.872.959-1.872,2.785S98.742,47.75,99.974,47.75Z" transform="translate(1630.734 14060.097)"/>
      <path id="Path_1299" data-name="Path 1299" d="M119.3,45.6c-.137,2.038-1.2,3.15-3.273,3.15-2.345,0-3.578-1.354-3.578-3.8a3.723,3.723,0,0,1,3.76-3.776c1.765,0,3.134.961,3.134,2.24a1.173,1.173,0,0,1-1.1,1.263c-.531,0-1.187-.274-1.187-.913a.875.875,0,0,1,.9-.991,1.7,1.7,0,0,0-1.444-.593c-1.583,0-2.026,1.492-2.026,2.648s.383,2.647,1.966,2.647c.911,0,1.55-.775,1.656-1.871Z" transform="translate(1622.81 14060.097)"/>
      <path id="Path_1300" data-name="Path 1300" d="M133.906,45.6c-.137,2.038-1.2,3.15-3.27,3.15-2.345,0-3.579-1.354-3.579-3.8a3.723,3.723,0,0,1,3.759-3.776c1.767,0,3.136.961,3.136,2.24a1.174,1.174,0,0,1-1.1,1.263c-.531,0-1.187-.274-1.187-.913a.875.875,0,0,1,.9-.991,1.7,1.7,0,0,0-1.445-.593c-1.582,0-2.025,1.492-2.025,2.648s.381,2.647,1.964,2.647c.914,0,1.55-.775,1.657-1.871Z" transform="translate(1615.746 14060.097)"/>
      <path id="Path_1301" data-name="Path 1301" d="M145.595,41.174a3.792,3.792,0,1,1-3.912,3.791A3.6,3.6,0,0,1,145.595,41.174Zm0,6.576c1.233,0,1.87-.959,1.87-2.785s-.637-2.785-1.87-2.785-1.871.959-1.871,2.785S144.362,47.75,145.595,47.75Z" transform="translate(1608.674 14060.097)"/>
      <path id="Path_1302" data-name="Path 1302" d="M157.37,45.964v-1h.745c.427,0,.609-.169.609-.609V37.487c0-.441-.183-.606-.609-.606h-.745V35.875h3.15v8.476c0,.44.183.609.607.609h.717v1Z" transform="translate(1601.089 14062.659)"/>
      <path id="Path_1303" data-name="Path 1303" d="M167.206,45.792v-1h.7c.428,0,.609-.169.609-.609v-3.9c0-.441-.181-.609-.609-.609h-.7v-1h3.1v5.509c0,.44.184.609.609.609h.748v1Zm2.009-10.273a1.1,1.1,0,1,1-1.093,1.1A1.1,1.1,0,0,1,169.215,35.519Z" transform="translate(1596.333 14062.831)"/>
      <path id="Path_1304" data-name="Path 1304" d="M68.756,65.079h.029a2.628,2.628,0,0,1,2.42-1.522A1.919,1.919,0,0,1,73.23,65a2.956,2.956,0,0,1,2.527-1.445A2.029,2.029,0,0,1,77.872,65.7v3.591c0,.442.183.608.609.608h.805v1.006h-4.26V69.9h.442c.426,0,.607-.166.607-.608V65.7A.977.977,0,0,0,75,64.744a1.774,1.774,0,0,0-1.69,1.811v2.738c0,.442.183.608.609.608h.412v1.006H70.445V69.9H70.9c.425,0,.608-.166.608-.608V66.1c0-.791-.153-1.353-1.066-1.353a1.816,1.816,0,0,0-1.7,1.811v2.738c0,.442.182.608.609.608h.456v1.006H65.485V69.9h.852c.426,0,.609-.166.609-.608V65.4c0-.44-.184-.607-.609-.607h-.852V63.784h3.271Z" transform="translate(1645.518 14049.273)"/>
      <path id="Path_1305" data-name="Path 1305" d="M94.842,67.528c-.048,1.187.32,2.466,1.734,2.466a1.706,1.706,0,0,0,1.842-1.613h1.262c-.2,1.735-1.248,2.754-3.271,2.754-2.359,0-3.606-1.324-3.606-3.789a3.5,3.5,0,0,1,3.531-3.788,3.459,3.459,0,0,1,3.378,3.971Zm2.829-1c.016-.958-.288-1.9-1.37-1.9-1.036,0-1.414.945-1.46,1.9Z" transform="translate(1632.31 14049.273)"/>
      <path id="Path_1306" data-name="Path 1306" d="M112.985,67.095h-.029a2.615,2.615,0,0,1-2.39,1.476c-2.115,0-3.014-1.918-3.014-3.789s1.11-3.788,3.014-3.788a2.87,2.87,0,0,1,2.39,1.308h.029V59.928c0-.457-.151-.671-.625-.671H111.4v-1h3.376v8.415c0,.456.136.668.609.668h.791v1.006h-3.2Zm-1.826.288c1.02,0,1.826-.85,1.826-2.693,0-1.659-.806-2.51-1.826-2.51s-1.567.851-1.567,2.6S110.142,67.383,111.159,67.383Z" transform="translate(1625.177 14051.838)"/>
      <path id="Path_1307" data-name="Path 1307" d="M125.433,68.172V67.166h.7c.427,0,.607-.166.607-.608v-3.9c0-.44-.18-.607-.607-.607h-.7V61.049h3.1v5.509c0,.442.186.608.61.608h.747v1.006ZM127.441,57.9a1.095,1.095,0,1,1-1.1,1.1A1.1,1.1,0,0,1,127.441,57.9Z" transform="translate(1616.531 14052.009)"/>
      <path id="Path_1308" data-name="Path 1308" d="M143.237,68.26v.454c0,1.705-.683,2.42-1.964,2.42a1.369,1.369,0,0,1-1.536-1.126,2.839,2.839,0,0,1-2.5,1.126c-1.187,0-2.118-.563-2.118-1.933,0-2.951,4.566-1.521,4.566-3.666,0-.975-.82-1.157-1.627-1.157a1.973,1.973,0,0,0-1.416.5c.563-.076,1.006.167,1.006.791,0,.684-.473.9-1.067.9a1.08,1.08,0,0,1-1.095-1.126c0-1.551,1.856-1.886,3.06-1.886,2.055,0,2.936.927,2.936,2.207v3.726c0,.335.138.5.365.5s.413-.213.413-1.156V68.26Zm-3.547-1.113-1.612.73c-.444.2-.912.441-.912,1.157,0,.64.288.959.912.959a1.685,1.685,0,0,0,1.612-1.856Z" transform="translate(1611.845 14049.273)"/>
    </g>
  </g>
</svg>
